<svg width="26" height="18" viewBox="0 0 26 18" fill="none" xmlns="http://www.w3.org/2000/svg">
<path d="M13.0212 2.06152L16.6285 8.22449L24.0127 5.43931L19.0899 12.8387L13.0212 10.8572V10.8587L6.9101 12.8481L1.98726 5.47064L9.37152 8.24756L12.9788 2.10288V1.98901L13.0121 2.04603L13.0212 2.03058V2.06152Z" fill="url(#paint0_linear_109_1630)"/>
<path d="M13.0212 11.8968L19.0899 13.9196L20.0235 15.9981L13.0104 13.7634L5.97646 15.9981L6.9101 13.9257L12.9788 11.909V11.8826L13.0183 11.8958L13.0212 11.8949V11.8968Z" fill="url(#paint1_linear_109_1630)"/>
<path fill-rule="evenodd" clip-rule="evenodd" d="M9.37153 8.25408L12.9788 2.10939V1.99553L13.0122 2.05255L13.0212 2.0371V2.06804L16.6285 8.23101L24.0127 5.44583L19.0899 12.8453L13.0212 10.8638V10.8652L6.91011 12.8546L1.98726 5.47716L9.37153 8.25408ZM4.93377 13.4777L0.336306 6.5878C-0.144164 5.86776 -0.106748 4.91863 0.428899 4.23897C0.964547 3.55931 1.87591 3.30457 2.68428 3.60857L8.50653 5.79807L11.0749 1.4231C11.268 0.775427 11.7819 0.254615 12.457 0.070176C13.1595 -0.121738 13.8952 0.0891375 14.3903 0.59071C14.5851 0.776739 14.741 1.00115 14.8475 1.25013L17.4947 5.7728L23.3139 3.57792C24.1218 3.27319 25.0333 3.52689 25.5697 4.2058C26.106 4.88471 26.1446 5.83361 25.6652 6.55419L21.0647 13.4692L21.8351 15.1842C22.1575 15.9019 22.0294 16.7429 21.5081 17.331C20.9868 17.9192 20.1698 18.1446 19.4224 17.9065L13.0095 15.863L6.57596 17.907C5.82826 18.1445 5.01136 17.9183 4.4906 17.3296C3.96984 16.7408 3.84262 15.8996 4.16584 15.1822L4.93377 13.4777ZM5.97646 16.0046L13.0104 13.7699L20.0235 16.0046L19.0899 13.9261L13.0212 11.9033V11.9014L13.0183 11.9023L12.9788 11.8892V11.9155L6.91011 13.9322L5.97646 16.0046Z" fill="black"/>
<defs>
<linearGradient id="paint0_linear_109_1630" x1="0" y1="9" x2="26" y2="9" gradientUnits="userSpaceOnUse">
<stop stop-color="#F7EA65"/>
<stop offset="0.5" stop-color="#FFFDFB"/>
<stop offset="0.51" stop-color="#F08A34"/>
<stop offset="1" stop-color="#F9EC8E"/>
</linearGradient>
<linearGradient id="paint1_linear_109_1630" x1="0" y1="9" x2="26" y2="9" gradientUnits="userSpaceOnUse">
<stop stop-color="#F7EA65"/>
<stop offset="0.5" stop-color="#FFFDFB"/>
<stop offset="0.51" stop-color="#F08A34"/>
<stop offset="1" stop-color="#F9EC8E"/>
</linearGradient>
</defs>
</svg>
