<svg width="17" height="23" viewBox="0 0 17 23" fill="none" xmlns="http://www.w3.org/2000/svg">
<path d="M6.71648 0.952636C7.58317 -0.317545 9.41683 -0.317545 10.2835 0.952636L16.6065 10.2192C17.1312 10.9882 17.1312 12.0118 16.6065 12.7808L10.2835 22.0474C9.41683 23.3175 7.58317 23.3175 6.71648 22.0474L0.393543 12.7808C-0.131181 12.0118 -0.131181 10.9882 0.393543 10.2192L6.71648 0.952636Z" fill="url(#paint0_linear_109_1334)"/>
<path fill-rule="evenodd" clip-rule="evenodd" d="M14.8866 11.4543L8.5637 2.18767C8.55557 2.17577 8.5497 2.17011 8.547 2.16773C8.54407 2.16514 8.54133 2.16329 8.53819 2.16167C8.53121 2.15807 8.51805 2.15365 8.5 2.15365C8.48195 2.15365 8.46879 2.15807 8.46181 2.16167C8.45867 2.16329 8.45593 2.16514 8.453 2.16773C8.4503 2.17011 8.44443 2.17577 8.4363 2.18767L2.11336 11.4543C2.09462 11.4817 2.09462 11.5183 2.11336 11.5457L8.4363 20.8123C8.44443 20.8242 8.4503 20.8299 8.453 20.8323C8.45593 20.8349 8.45867 20.8367 8.46181 20.8383C8.46879 20.8419 8.48195 20.8463 8.5 20.8463C8.51805 20.8463 8.53121 20.8419 8.53819 20.8383C8.54133 20.8367 8.54407 20.8349 8.547 20.8323C8.5497 20.8299 8.55557 20.8242 8.5637 20.8123L14.8866 11.5457C14.9054 11.5183 14.9054 11.4817 14.8866 11.4543ZM10.2835 0.952636C9.41683 -0.317545 7.58317 -0.317545 6.71648 0.952636L0.393543 10.2192C-0.131181 10.9882 -0.131181 12.0118 0.393543 12.7808L6.71648 22.0474C7.58317 23.3175 9.41683 23.3175 10.2835 22.0474L16.6065 12.7808C17.1312 12.0118 17.1312 10.9882 16.6065 10.2192L10.2835 0.952636Z" fill="black"/>
<defs>
<linearGradient id="paint0_linear_109_1334" x1="4.7932" y1="7.46547" x2="12.8138" y2="15.0231" gradientUnits="userSpaceOnUse">
<stop offset="0.15" stop-color="white"/>
<stop offset="0.5" stop-color="#8F8F8F"/>
<stop offset="0.85" stop-color="white"/>
</linearGradient>
</defs>
</svg>
