<svg width="59" height="23" viewBox="0 0 59 23" fill="none" xmlns="http://www.w3.org/2000/svg">
<path d="M6.71648 0.952636C7.58317 -0.317545 9.41683 -0.317545 10.2835 0.952636L16.6065 10.2192C17.1312 10.9882 17.1312 12.0118 16.6065 12.7808L10.2835 22.0474C9.41683 23.3175 7.58317 23.3175 6.71648 22.0474L0.393543 12.7808C-0.131181 12.0118 -0.131181 10.9882 0.393543 10.2192L6.71648 0.952636Z" fill="url(#paint0_linear_109_1600)"/>
<path fill-rule="evenodd" clip-rule="evenodd" d="M14.8866 11.4543L8.5637 2.18767C8.55557 2.17577 8.5497 2.17011 8.547 2.16773C8.54407 2.16514 8.54133 2.16329 8.53819 2.16167C8.53121 2.15807 8.51805 2.15365 8.5 2.15365C8.48195 2.15365 8.46879 2.15807 8.46181 2.16167C8.45867 2.16329 8.45593 2.16514 8.453 2.16773C8.4503 2.17011 8.44443 2.17577 8.4363 2.18767L2.11336 11.4543C2.09462 11.4817 2.09462 11.5183 2.11336 11.5457L8.4363 20.8123C8.44443 20.8242 8.4503 20.8299 8.453 20.8323C8.45593 20.8349 8.45867 20.8367 8.46181 20.8383C8.46879 20.8419 8.48195 20.8463 8.5 20.8463C8.51805 20.8463 8.53121 20.8419 8.53819 20.8383C8.54133 20.8367 8.54407 20.8349 8.547 20.8323C8.5497 20.8299 8.55557 20.8242 8.5637 20.8123L14.8866 11.5457C14.9054 11.5183 14.9054 11.4817 14.8866 11.4543ZM10.2835 0.952636C9.41683 -0.317545 7.58317 -0.317545 6.71648 0.952636L0.393543 10.2192C-0.131181 10.9882 -0.131181 12.0118 0.393543 12.7808L6.71648 22.0474C7.58317 23.3175 9.41683 23.3175 10.2835 22.0474L16.6065 12.7808C17.1312 12.0118 17.1312 10.9882 16.6065 10.2192L10.2835 0.952636Z" fill="black"/>
<path d="M27.7165 0.952636C28.5832 -0.317545 30.4168 -0.317545 31.2835 0.952636L37.6065 10.2192C38.1312 10.9882 38.1312 12.0118 37.6065 12.7808L31.2835 22.0474C30.4168 23.3175 28.5832 23.3175 27.7165 22.0474L21.3935 12.7808C20.8688 12.0118 20.8688 10.9882 21.3935 10.2192L27.7165 0.952636Z" fill="url(#paint1_linear_109_1600)"/>
<path fill-rule="evenodd" clip-rule="evenodd" d="M35.8866 11.4543L29.5637 2.18767C29.5556 2.17577 29.5497 2.17011 29.547 2.16773C29.5441 2.16514 29.5413 2.16329 29.5382 2.16167C29.5312 2.15807 29.518 2.15365 29.5 2.15365C29.482 2.15365 29.4688 2.15807 29.4618 2.16167C29.4587 2.16329 29.4559 2.16514 29.453 2.16773C29.4503 2.17011 29.4444 2.17577 29.4363 2.18767L23.1134 11.4543C23.0946 11.4817 23.0946 11.5183 23.1134 11.5457L29.4363 20.8123C29.4444 20.8242 29.4503 20.8299 29.453 20.8323C29.4559 20.8349 29.4587 20.8367 29.4618 20.8383C29.4688 20.8419 29.482 20.8463 29.5 20.8463C29.518 20.8463 29.5312 20.8419 29.5382 20.8383C29.5413 20.8367 29.5441 20.8349 29.547 20.8323C29.5497 20.8299 29.5556 20.8242 29.5637 20.8123L35.8866 11.5457C35.9054 11.5183 35.9054 11.4817 35.8866 11.4543ZM31.2835 0.952636C30.4168 -0.317545 28.5832 -0.317545 27.7165 0.952636L21.3935 10.2192C20.8688 10.9882 20.8688 12.0118 21.3935 12.7808L27.7165 22.0474C28.5832 23.3175 30.4168 23.3175 31.2835 22.0474L37.6065 12.7808C38.1312 12.0118 38.1312 10.9882 37.6065 10.2192L31.2835 0.952636Z" fill="black"/>
<path d="M48.7165 0.952636C49.5832 -0.317545 51.4168 -0.317545 52.2835 0.952636L58.6065 10.2192C59.1312 10.9882 59.1312 12.0118 58.6065 12.7808L52.2835 22.0474C51.4168 23.3175 49.5832 23.3175 48.7165 22.0474L42.3935 12.7808C41.8688 12.0118 41.8688 10.9882 42.3935 10.2192L48.7165 0.952636Z" fill="url(#paint2_linear_109_1600)"/>
<path fill-rule="evenodd" clip-rule="evenodd" d="M56.8866 11.4543L50.5637 2.18767C50.5556 2.17577 50.5497 2.17011 50.547 2.16773C50.5441 2.16514 50.5413 2.16329 50.5382 2.16167C50.5312 2.15807 50.518 2.15365 50.5 2.15365C50.482 2.15365 50.4688 2.15807 50.4618 2.16167C50.4587 2.16329 50.4559 2.16514 50.453 2.16773C50.4503 2.17011 50.4444 2.17577 50.4363 2.18767L44.1134 11.4543C44.0946 11.4817 44.0946 11.5183 44.1134 11.5457L50.4363 20.8123C50.4444 20.8242 50.4503 20.8299 50.453 20.8323C50.4559 20.8349 50.4587 20.8367 50.4618 20.8383C50.4688 20.8419 50.482 20.8463 50.5 20.8463C50.518 20.8463 50.5312 20.8419 50.5382 20.8383C50.5413 20.8367 50.5441 20.8349 50.547 20.8323C50.5497 20.8299 50.5556 20.8242 50.5637 20.8123L56.8866 11.5457C56.9054 11.5183 56.9054 11.4817 56.8866 11.4543ZM52.2835 0.952636C51.4168 -0.317545 49.5832 -0.317545 48.7165 0.952636L42.3935 10.2192C41.8688 10.9882 41.8688 12.0118 42.3935 12.7808L48.7165 22.0474C49.5832 23.3175 51.4168 23.3175 52.2835 22.0474L58.6065 12.7808C59.1312 12.0118 59.1312 10.9882 58.6065 10.2192L52.2835 0.952636Z" fill="black"/>
<defs>
<linearGradient id="paint0_linear_109_1600" x1="4.7932" y1="7.46547" x2="12.8138" y2="15.0231" gradientUnits="userSpaceOnUse">
<stop offset="0.15" stop-color="white"/>
<stop offset="0.5" stop-color="#8F8F8F"/>
<stop offset="0.85" stop-color="white"/>
</linearGradient>
<linearGradient id="paint1_linear_109_1600" x1="25.7932" y1="7.46547" x2="33.8138" y2="15.0231" gradientUnits="userSpaceOnUse">
<stop offset="0.15" stop-color="white"/>
<stop offset="0.5" stop-color="#8F8F8F"/>
<stop offset="0.85" stop-color="white"/>
</linearGradient>
<linearGradient id="paint2_linear_109_1600" x1="46.7932" y1="7.46547" x2="54.8138" y2="15.0231" gradientUnits="userSpaceOnUse">
<stop offset="0.15" stop-color="white"/>
<stop offset="0.5" stop-color="#8F8F8F"/>
<stop offset="0.85" stop-color="white"/>
</linearGradient>
</defs>
</svg>
