<svg width="43" height="23" viewBox="0 0 43 23" fill="none" xmlns="http://www.w3.org/2000/svg">
<path d="M9.49999 2.29278L11.8007 7.10565L15.9891 4.65437L13.4819 9.61671L16.8445 11.5L13.4819 13.3833L15.9891 18.3456L11.8007 15.8944L9.49999 20.7072L7.19935 15.8944L3.01094 18.3456L5.51809 13.3833L2.15556 11.5L5.51809 9.61671L3.01094 4.65437L7.19935 7.10565L9.49999 2.29278Z" fill="url(#paint0_linear_385_875)"/>
<path d="M12.5127 4.75573L16.5481 2.39409C17.5664 1.79809 18.7242 2.91373 18.1882 3.97457L15.6815 8.93599L18.3908 10.4534C19.2031 10.9083 19.2031 12.0917 18.3908 12.5466L15.6815 14.064L18.1882 19.0254C18.7242 20.0863 17.5664 21.2019 16.5481 20.6059L12.5127 18.2442L10.5618 22.3256C10.1319 23.2248 8.86802 23.2248 8.43818 22.3256L6.48718 18.2442L2.45194 20.6059C1.43357 21.2019 0.275784 20.0862 0.811756 19.0254L3.3184 14.064L0.609162 12.5466C-0.20305 12.0917 -0.203055 10.9084 0.609153 10.4534L3.3184 8.93599L0.811756 3.97461C0.275782 2.91376 1.43356 1.79812 2.45193 2.39413L6.48718 4.75579L8.43818 0.674403C8.86802 -0.224799 10.1319 -0.224802 10.5618 0.674399L12.5127 4.75573ZM7.19935 7.10565L3.01094 4.65437L5.51809 9.61671L2.15556 11.5L5.51809 13.3833L3.01094 18.3456L7.19935 15.8944L9.49999 20.7072L11.8007 15.8944L15.9891 18.3456L13.4819 13.3833L16.8445 11.5L13.4819 9.61671L15.9891 4.65437L11.8007 7.10565L9.49999 2.29278L7.19935 7.10565Z" fill="black"/>
<path d="M33.5 2.29278L35.8007 7.10565L39.9891 4.65437L37.4819 9.61671L40.8445 11.5L37.4819 13.3833L39.9891 18.3456L35.8007 15.8944L33.5 20.7072L31.1993 15.8944L27.0109 18.3456L29.5181 13.3833L26.1556 11.5L29.5181 9.61671L27.0109 4.65437L31.1993 7.10565L33.5 2.29278Z" fill="url(#paint1_linear_385_875)"/>
<path d="M36.5127 4.75573L40.5481 2.39409C41.5664 1.79809 42.7242 2.91373 42.1882 3.97457L39.6815 8.93599L42.3908 10.4534C43.2031 10.9083 43.2031 12.0917 42.3908 12.5466L39.6815 14.064L42.1882 19.0254C42.7242 20.0863 41.5664 21.2019 40.5481 20.6059L36.5127 18.2442L34.5618 22.3256C34.1319 23.2248 32.868 23.2248 32.4382 22.3256L30.4872 18.2442L26.4519 20.6059C25.4336 21.2019 24.2758 20.0862 24.8118 19.0254L27.3184 14.064L24.6092 12.5466C23.7969 12.0917 23.7969 10.9084 24.6092 10.4534L27.3184 8.93599L24.8118 3.97461C24.2758 2.91376 25.4336 1.79812 26.4519 2.39413L30.4872 4.75579L32.4382 0.674403C32.868 -0.224799 34.1319 -0.224802 34.5618 0.674399L36.5127 4.75573ZM31.1993 7.10565L27.0109 4.65437L29.5181 9.61671L26.1556 11.5L29.5181 13.3833L27.0109 18.3456L31.1993 15.8944L33.5 20.7072L35.8007 15.8944L39.9891 18.3456L37.4819 13.3833L40.8445 11.5L37.4819 9.61671L39.9891 4.65437L35.8007 7.10565L33.5 2.29278L31.1993 7.10565Z" fill="black"/>
<defs>
<linearGradient id="paint0_linear_385_875" x1="1.22938" y1="3.11988" x2="17.8408" y2="20.0939" gradientUnits="userSpaceOnUse">
<stop offset="0.0392129" stop-color="#B8C739"/>
<stop offset="0.278607" stop-color="#F0C73E"/>
<stop offset="0.389197" stop-color="#FE3ECB"/>
<stop offset="0.467261" stop-color="#FE04FB"/>
<stop offset="0.598668" stop-color="#3283FF"/>
<stop offset="0.692344" stop-color="#05F9EE"/>
<stop offset="0.848471" stop-color="#3BEA92"/>
</linearGradient>
<linearGradient id="paint1_linear_385_875" x1="25.2294" y1="3.11988" x2="41.8408" y2="20.0939" gradientUnits="userSpaceOnUse">
<stop offset="0.0392129" stop-color="#B8C739"/>
<stop offset="0.278607" stop-color="#F0C73E"/>
<stop offset="0.389197" stop-color="#FE3ECB"/>
<stop offset="0.467261" stop-color="#FE04FB"/>
<stop offset="0.598668" stop-color="#3283FF"/>
<stop offset="0.692344" stop-color="#05F9EE"/>
<stop offset="0.848471" stop-color="#3BEA92"/>
</linearGradient>
</defs>
</svg>
