<svg width="71" height="22" viewBox="0 0 71 22" fill="none" xmlns="http://www.w3.org/2000/svg">
<path d="M5.15244 19.9762L10.5 16.4086L15.8476 19.9762L15.1059 13.0534L19.1264 8.12673L13.7788 7.48966L10.5 2.05337L7.22121 7.48966L1.87364 8.12673L5.89407 13.0534L5.15244 19.9762Z" fill="url(#paint0_linear_109_1625)"/>
<path fill-rule="evenodd" clip-rule="evenodd" d="M4.14389 21.6794C3.53939 21.2593 3.20839 20.5006 3.29143 19.7254L3.93591 13.7095L0.472622 9.46553C0.00734931 8.89539 -0.126625 8.09039 0.125351 7.37893C0.377326 6.66746 0.973127 6.16846 1.66971 6.08547L6.13935 5.55299L8.93358 0.920114C9.27992 0.345872 9.86874 0 10.5 0C11.1313 0 11.7201 0.345872 12.0664 0.920114L14.8607 5.55299L19.3303 6.08547C20.0269 6.16846 20.6227 6.66746 20.8747 7.37893C21.1266 8.09039 20.9927 8.89539 20.5274 9.46553L17.0641 13.7095L17.7086 19.7254C17.7916 20.5006 17.4606 21.2593 16.8561 21.6794C16.2516 22.0996 15.4797 22.1073 14.8682 21.6993L10.5 18.7851L6.13178 21.6993C5.52028 22.1073 4.7484 22.0996 4.14389 21.6794ZM10.5 16.3938L15.8476 19.9614L15.1059 13.0386L19.1264 8.11197L13.7788 7.4749L10.5 2.03861L7.2212 7.4749L1.87363 8.11197L5.89407 13.0386L5.15243 19.9614L10.5 16.3938Z" fill="black"/>
<path d="M30.1524 19.9762L35.5 16.4086L40.8476 19.9762L40.1059 13.0534L44.1264 8.12673L38.7788 7.48966L35.5 2.05337L32.2212 7.48966L26.8736 8.12673L30.8941 13.0534L30.1524 19.9762Z" fill="url(#paint1_linear_109_1625)"/>
<path fill-rule="evenodd" clip-rule="evenodd" d="M29.1439 21.6794C28.5394 21.2593 28.2084 20.5006 28.2914 19.7254L28.9359 13.7095L25.4726 9.46553C25.0073 8.89539 24.8734 8.09039 25.1254 7.37893C25.3773 6.66746 25.9731 6.16846 26.6697 6.08547L31.1393 5.55299L33.9336 0.920114C34.2799 0.345872 34.8687 0 35.5 0C36.1313 0 36.7201 0.345872 37.0664 0.920114L39.8607 5.55299L44.3303 6.08547C45.0269 6.16846 45.6227 6.66746 45.8747 7.37893C46.1266 8.09039 45.9927 8.89539 45.5274 9.46553L42.0641 13.7095L42.7086 19.7254C42.7916 20.5006 42.4606 21.2593 41.8561 21.6794C41.2516 22.0996 40.4797 22.1073 39.8682 21.6993L35.5 18.7851L31.1318 21.6993C30.5203 22.1073 29.7484 22.0996 29.1439 21.6794ZM35.5 16.3938L40.8476 19.9614L40.1059 13.0386L44.1264 8.11197L38.7788 7.4749L35.5 2.03861L32.2212 7.4749L26.8736 8.11197L30.8941 13.0386L30.1524 19.9614L35.5 16.3938Z" fill="black"/>
<path d="M55.1524 19.9762L60.5 16.4086L65.8476 19.9762L65.1059 13.0534L69.1264 8.12673L63.7788 7.48966L60.5 2.05337L57.2212 7.48966L51.8736 8.12673L55.8941 13.0534L55.1524 19.9762Z" fill="url(#paint2_linear_109_1625)"/>
<path fill-rule="evenodd" clip-rule="evenodd" d="M54.1439 21.6794C53.5394 21.2593 53.2084 20.5006 53.2914 19.7254L53.9359 13.7095L50.4726 9.46553C50.0073 8.89539 49.8734 8.09039 50.1254 7.37893C50.3773 6.66746 50.9731 6.16846 51.6697 6.08547L56.1393 5.55299L58.9336 0.920114C59.2799 0.345872 59.8687 0 60.5 0C61.1313 0 61.7201 0.345872 62.0664 0.920114L64.8607 5.55299L69.3303 6.08547C70.0269 6.16846 70.6227 6.66746 70.8747 7.37893C71.1266 8.09039 70.9927 8.89539 70.5274 9.46553L67.0641 13.7095L67.7086 19.7254C67.7916 20.5006 67.4606 21.2593 66.8561 21.6794C66.2516 22.0996 65.4797 22.1073 64.8682 21.6993L60.5 18.7851L56.1318 21.6993C55.5203 22.1073 54.7484 22.0996 54.1439 21.6794ZM60.5 16.3938L65.8476 19.9614L65.1059 13.0386L69.1264 8.11197L63.7788 7.4749L60.5 2.03861L57.2212 7.4749L51.8736 8.11197L55.8941 13.0386L55.1524 19.9614L60.5 16.3938Z" fill="black"/>
<defs>
<linearGradient id="paint0_linear_109_1625" x1="-1.04525" y1="9.33175" x2="13.1259" y2="22.2467" gradientUnits="userSpaceOnUse">
<stop stop-color="#FFE45F"/>
<stop offset="0.355008" stop-color="#FFF9C2"/>
<stop offset="0.665" stop-color="#DFAF05"/>
<stop offset="1" stop-color="#FFFAC6"/>
</linearGradient>
<linearGradient id="paint1_linear_109_1625" x1="23.9548" y1="9.33175" x2="38.1259" y2="22.2467" gradientUnits="userSpaceOnUse">
<stop stop-color="#FFE45F"/>
<stop offset="0.355008" stop-color="#FFF9C2"/>
<stop offset="0.665" stop-color="#DFAF05"/>
<stop offset="1" stop-color="#FFFAC6"/>
</linearGradient>
<linearGradient id="paint2_linear_109_1625" x1="48.9548" y1="9.33175" x2="63.1259" y2="22.2467" gradientUnits="userSpaceOnUse">
<stop stop-color="#FFE45F"/>
<stop offset="0.355008" stop-color="#FFF9C2"/>
<stop offset="0.665" stop-color="#DFAF05"/>
<stop offset="1" stop-color="#FFFAC6"/>
</linearGradient>
</defs>
</svg>
