<svg width="21" height="22" viewBox="0 0 21 22" fill="none" xmlns="http://www.w3.org/2000/svg">
<path d="M5.15244 19.9762L10.5 16.4086L15.8476 19.9762L15.1059 13.0534L19.1264 8.12673L13.7788 7.48966L10.5 2.05337L7.22121 7.48966L1.87364 8.12673L5.89407 13.0534L5.15244 19.9762Z" fill="url(#paint0_linear_109_1611)"/>
<path fill-rule="evenodd" clip-rule="evenodd" d="M4.14389 21.6794C3.53939 21.2593 3.20839 20.5006 3.29143 19.7254L3.93591 13.7095L0.472622 9.46553C0.00734931 8.89539 -0.126625 8.09039 0.125351 7.37893C0.377326 6.66746 0.973127 6.16846 1.66971 6.08547L6.13935 5.55299L8.93358 0.920114C9.27992 0.345872 9.86874 0 10.5 0C11.1313 0 11.7201 0.345872 12.0664 0.920114L14.8607 5.55299L19.3303 6.08547C20.0269 6.16846 20.6227 6.66746 20.8747 7.37893C21.1266 8.09039 20.9927 8.89539 20.5274 9.46553L17.0641 13.7095L17.7086 19.7254C17.7916 20.5006 17.4606 21.2593 16.8561 21.6794C16.2516 22.0996 15.4797 22.1073 14.8682 21.6993L10.5 18.7851L6.13178 21.6993C5.52028 22.1073 4.7484 22.0996 4.14389 21.6794ZM10.5 16.3938L15.8476 19.9614L15.1059 13.0386L19.1264 8.11197L13.7788 7.4749L10.5 2.03861L7.2212 7.4749L1.87363 8.11197L5.89407 13.0386L5.15243 19.9614L10.5 16.3938Z" fill="black"/>
<defs>
<linearGradient id="paint0_linear_109_1611" x1="-1.04525" y1="9.33175" x2="13.1259" y2="22.2467" gradientUnits="userSpaceOnUse">
<stop stop-color="#FFE45F"/>
<stop offset="0.355008" stop-color="#FFF9C2"/>
<stop offset="0.665" stop-color="#DFAF05"/>
<stop offset="1" stop-color="#FFFAC6"/>
</linearGradient>
</defs>
</svg>
