<svg width="50" height="44" viewBox="0 0 50 44" fill="none" xmlns="http://www.w3.org/2000/svg">
<path d="M48.1247 24.6064L24.1087 38.6397C23.2065 39.2661 22.1724 39.567 21.2598 39.6627C20.2869 39.7648 19.1316 39.6674 18.0646 39.1641L17.9538 39.1118L1.88826 29.8602L0.557602 30.6436C-0.256501 31.2607 -0.168906 32.1136 0.753253 32.5486L19.3368 43.2502C20.2589 43.6852 21.6665 43.5375 22.4806 42.9204L49.4424 27.1658C50.2565 26.5486 50.1689 25.6957 49.2468 25.2607L48.1247 24.6064Z" fill="white"/>
<path d="M48.1247 17.7649L24.1087 31.7981C23.2065 32.4245 22.1724 32.7254 21.2598 32.8212C20.2869 32.9233 19.1316 32.8258 18.0646 32.3225L17.9538 32.2703L1.88826 23.0187L0.557602 23.802C-0.256501 24.4192 -0.168905 25.2721 0.753253 25.7071L19.3368 36.4087C20.2589 36.8436 21.6665 36.696 22.4806 36.0788L49.4424 20.3242C50.2565 19.7071 50.1689 18.8542 49.2468 18.4192L48.1247 17.7649Z" fill="white"/>
<path fill-rule="evenodd" clip-rule="evenodd" d="M30.6782 0.749775C29.756 0.3148 28.3485 0.462484 27.5344 1.07964L0.5576 16.9605C-0.256503 17.5776 -0.168908 18.4305 0.753251 18.8655L19.3368 29.5671C20.2589 30.0021 21.6665 29.8544 22.4806 29.2373L49.4424 13.4827C50.2565 12.8655 50.1689 12.0126 49.2468 11.5776L30.6782 0.749775ZM32.2409 18.8425L28.8053 16.4823C30.198 15.1731 30.2611 13.537 28.8111 12.5409C27.3611 11.5448 24.8642 11.5088 22.8029 12.3587L19.3672 9.99841C23.8759 7.66652 29.8298 7.5406 33.1554 9.82532C36.4811 12.11 36.0082 16.0014 32.2409 18.8425ZM30.3232 20.0413L26.8875 17.681C24.8262 18.5308 22.3293 18.4949 20.8793 17.4988C19.4294 16.5027 19.4925 14.8666 20.8851 13.5574L17.4495 11.1971C13.6822 14.0383 13.2093 17.9296 16.535 20.2144C19.8607 22.4991 25.8145 22.3732 30.3232 20.0413ZM22.6079 16.4184C23.5713 17.0803 25.354 16.9907 26.5897 16.2183C27.8254 15.4459 28.0461 14.2832 27.0826 13.6213C26.1191 12.9594 24.3364 13.049 23.1007 13.8214C21.8651 14.5938 21.6444 15.7565 22.6079 16.4184Z" fill="white"/>
</svg>
