<svg width="27" height="34" viewBox="0 0 27 34" fill="none" xmlns="http://www.w3.org/2000/svg">
<g clip-path="url(#clip0_76_1030)">
<path d="M7.68115 10.3094C7.68115 9.80533 8.098 9.39667 8.61219 9.39667H25.8363V32.9001C25.8363 33.4042 25.4195 33.8129 24.9053 33.8129H8.61219C8.098 33.8129 7.68115 33.4042 7.68115 32.9001V10.3094Z" fill="url(#paint0_linear_76_1030)"/>
<path d="M9.10561 0.700436C9.22534 0.210193 9.72778 -0.0920782 10.2279 0.0252952L26.2381 3.78317C26.7381 3.90053 27.0465 4.39312 26.9266 4.88336L25.7349 9.76375L8.8192 5.79335C8.31914 5.67599 8.01081 5.1834 8.13054 4.69316L9.10561 0.700436Z" fill="url(#paint1_linear_76_1030)"/>
<path d="M22.3448 20.9816H19.3632C19.073 22.1197 18.0169 22.9632 16.7586 22.9632C15.5002 22.9632 14.4441 22.1197 14.154 20.9816H11.1724C11.4941 23.7085 13.8724 25.8263 16.7586 25.8263C19.6448 25.8263 22.0231 23.7085 22.3448 20.9816Z" fill="white"/>
<path d="M22.3448 19.7178H19.3632C19.073 18.5796 18.0169 17.7362 16.7586 17.7362C15.5002 17.7362 14.4441 18.5796 14.154 19.7178H11.1724C11.4941 16.9908 13.8724 14.8732 16.7586 14.8732C19.6448 14.8732 22.0231 16.9908 22.3448 19.7178Z" fill="white"/>
<path d="M18.2725 20.3497C18.2725 21.164 17.5947 21.8241 16.7586 21.8241C15.9224 21.8241 15.2446 21.164 15.2446 20.3497C15.2446 19.5354 15.9224 18.8752 16.7586 18.8752C17.5947 18.8752 18.2725 19.5354 18.2725 20.3497Z" fill="white"/>
<path d="M7.68115 32.2156H25.8363V32.9001C25.8363 33.4042 25.4195 33.8129 24.9053 33.8129H8.61219C8.098 33.8129 7.68115 33.4042 7.68115 32.9001V32.2156Z" fill="#7474F2"/>
<g style="mix-blend-mode:darken">
<path d="M7.68115 10.3094C7.68115 9.80533 8.098 9.39667 8.61219 9.39667H25.8363V10.7658H7.68115V10.3094Z" fill="#7474F2" fill-opacity="0.21"/>
</g>
<path d="M0 8.67114C0 8.16705 0.416838 7.75839 0.931034 7.75839H3.9569C4.47108 7.75839 4.88793 8.16705 4.88793 8.67114V9.12752C4.88793 9.63161 4.47108 10.0403 3.9569 10.0403H0.931034C0.416838 10.0403 0 9.63161 0 9.12752V8.67114Z" fill="#A1B2CB"/>
<path d="M2.61675 2.6991C2.98034 2.34265 3.56985 2.34265 3.93344 2.6991L6.07305 4.7967C6.43665 5.15315 6.43665 5.73108 6.07305 6.08753L5.74386 6.41024C5.38027 6.76669 4.79079 6.76669 4.4272 6.41024L2.28758 4.31264C1.924 3.95619 1.924 3.37826 2.28758 3.02181L2.61675 2.6991Z" fill="#A1B2CB"/>
<path d="M2.28759 14.7587C1.92399 14.4022 1.92399 13.8243 2.28759 13.4678L4.42719 11.3702C4.79078 11.0138 5.38029 11.0138 5.74388 11.3702L6.07305 11.6929C6.43664 12.0494 6.43664 12.6273 6.07305 12.9838L3.93344 15.0814C3.56985 15.4378 2.98034 15.4378 2.61675 15.0814L2.28759 14.7587Z" fill="#A1B2CB"/>
</g>
<defs>
<linearGradient id="paint0_linear_76_1030" x1="7.68115" y1="0.790023" x2="34.1015" y2="26.4528" gradientUnits="userSpaceOnUse">
<stop stop-color="#39EDFE"/>
<stop offset="0.291229" stop-color="#38EEFC"/>
<stop offset="0.547314" stop-color="#87A6FB"/>
<stop offset="0.785" stop-color="#B678FB"/>
<stop offset="1" stop-color="#BA7BFA"/>
</linearGradient>
<linearGradient id="paint1_linear_76_1030" x1="7.68099" y1="0.790018" x2="34.1014" y2="26.4528" gradientUnits="userSpaceOnUse">
<stop stop-color="#39EDFE"/>
<stop offset="0.291229" stop-color="#38EEFC"/>
<stop offset="0.547314" stop-color="#87A6FB"/>
<stop offset="0.785" stop-color="#B678FB"/>
<stop offset="1" stop-color="#BA7BFA"/>
</linearGradient>
<clipPath id="clip0_76_1030">
<rect width="27" height="34" fill="white"/>
</clipPath>
</defs>
</svg>
